<?xml version="1.0" encoding="utf-8"?>
<!-- Generator: Adobe Illustrator 23.0.1, SVG Export Plug-In . SVG Version: 6.00 Build 0)  -->
<svg version="1.1" id="Swiss watch"
	 xmlns="http://www.w3.org/2000/svg" xmlns:xlink="http://www.w3.org/1999/xlink" x="0px" y="0px" viewBox="0 0 250 250"
	 style="enable-background:new 0 0 250 250;" xml:space="preserve">
<style type="text/css">
	.st0{fill:none;stroke:#FFFFFF;stroke-width:2.99;stroke-linecap:round;stroke-miterlimit:10;}
	.st1{fill:none;stroke:#FFFFFF;stroke-width:0.5;stroke-linecap:round;stroke-miterlimit:10;}
</style>
<title>face-013</title>
<line class="st0" x1="125" y1="1.5" x2="125" y2="16.4"/>
<line class="st0" x1="186.8" y1="18" x2="179.3" y2="31"/>
<line class="st0" x1="231.9" y1="63.2" x2="219" y2="70.7"/>
<line class="st0" x1="248.5" y1="125" x2="233.6" y2="125"/>
<line class="st0" x1="231.9" y1="186.7" x2="219" y2="179.3"/>
<line class="st0" x1="186.8" y1="231.9" x2="179.3" y2="219"/>
<line class="st0" x1="125" y1="248.5" x2="125" y2="233.5"/>
<line class="st0" x1="63.3" y1="231.9" x2="70.7" y2="219"/>
<line class="st0" x1="18" y1="186.7" x2="31" y2="179.3"/>
<line class="st0" x1="1.5" y1="125" x2="16.5" y2="125"/>
<line class="st0" x1="18" y1="63.2" x2="31" y2="70.7"/>
<line class="st0" x1="63.3" y1="18" x2="70.7" y2="31"/>
<line class="st1" x1="138" y1="1.5" x2="136.9" y2="11.5"/>
<line class="st1" x1="150.8" y1="3.5" x2="148.7" y2="13.3"/>
<line class="st1" x1="163.4" y1="6.9" x2="160.3" y2="16.4"/>
<line class="st1" x1="175.5" y1="11.6" x2="171.4" y2="20.7"/>
<line class="st1" x1="198" y1="24.5" x2="192.1" y2="32.6"/>
<line class="st1" x1="208.1" y1="32.7" x2="201.4" y2="40.2"/>
<line class="st1" x1="217.3" y1="41.9" x2="209.8" y2="48.6"/>
<line class="st1" x1="225.5" y1="52" x2="217.4" y2="57.9"/>
<line class="st1" x1="238.4" y1="74.5" x2="229.3" y2="78.6"/>
<line class="st1" x1="243.1" y1="86.6" x2="233.6" y2="89.7"/>
<line class="st1" x1="246.5" y1="99.2" x2="236.7" y2="101.3"/>
<line class="st1" x1="248.5" y1="112" x2="238.5" y2="113.1"/>
<line class="st1" x1="248.5" y1="138" x2="238.5" y2="136.9"/>
<line class="st1" x1="246.5" y1="150.8" x2="236.7" y2="148.7"/>
<line class="st1" x1="243.1" y1="163.4" x2="233.6" y2="160.3"/>
<line class="st1" x1="238.4" y1="175.5" x2="229.3" y2="171.4"/>
<line class="st1" x1="225.5" y1="198" x2="217.4" y2="192.1"/>
<line class="st1" x1="217.3" y1="208.1" x2="209.8" y2="201.4"/>
<line class="st1" x1="208.1" y1="217.3" x2="201.4" y2="209.8"/>
<line class="st1" x1="198" y1="225.5" x2="192.1" y2="217.4"/>
<line class="st1" x1="175.5" y1="238.4" x2="171.4" y2="229.3"/>
<line class="st1" x1="163.4" y1="243.1" x2="160.3" y2="233.6"/>
<line class="st1" x1="150.8" y1="246.5" x2="148.7" y2="236.7"/>
<line class="st1" x1="138" y1="248.5" x2="136.9" y2="238.5"/>
<line class="st1" x1="112" y1="248.5" x2="113.1" y2="238.5"/>
<line class="st1" x1="99.2" y1="246.5" x2="101.3" y2="236.7"/>
<line class="st1" x1="86.6" y1="243.1" x2="89.7" y2="233.6"/>
<line class="st1" x1="74.5" y1="238.4" x2="78.6" y2="229.3"/>
<line class="st1" x1="52" y1="225.5" x2="57.9" y2="217.4"/>
<line class="st1" x1="41.9" y1="217.3" x2="48.6" y2="209.8"/>
<line class="st1" x1="32.7" y1="208.1" x2="40.2" y2="201.4"/>
<line class="st1" x1="24.5" y1="198" x2="32.6" y2="192.1"/>
<line class="st1" x1="11.6" y1="175.5" x2="20.7" y2="171.4"/>
<line class="st1" x1="6.9" y1="163.4" x2="16.4" y2="160.3"/>
<line class="st1" x1="3.5" y1="150.8" x2="13.3" y2="148.7"/>
<line class="st1" x1="1.5" y1="138" x2="11.5" y2="136.9"/>
<line class="st1" x1="1.5" y1="112" x2="11.5" y2="113.1"/>
<line class="st1" x1="3.5" y1="99.2" x2="13.3" y2="101.3"/>
<line class="st1" x1="6.9" y1="86.6" x2="16.4" y2="89.7"/>
<line class="st1" x1="11.6" y1="74.5" x2="20.7" y2="78.6"/>
<line class="st1" x1="24.5" y1="52" x2="32.6" y2="57.9"/>
<line class="st1" x1="32.7" y1="41.9" x2="40.2" y2="48.6"/>
<line class="st1" x1="41.9" y1="32.7" x2="48.6" y2="40.2"/>
<line class="st1" x1="52" y1="24.5" x2="57.9" y2="32.6"/>
<line class="st1" x1="74.5" y1="11.6" x2="78.6" y2="20.7"/>
<line class="st1" x1="86.6" y1="6.9" x2="89.7" y2="16.4"/>
<line class="st1" x1="99.2" y1="3.5" x2="101.3" y2="13.3"/>
<line class="st1" x1="112" y1="1.5" x2="113.1" y2="11.5"/>
</svg>