<svg id="Layer_1" data-name="Layer 1" xmlns="http://www.w3.org/2000/svg" viewBox="0 0 606.08 205.46"><title>beat</title><path id="path27774" d="M1.87,142H54.19v60.48H1.87Z" transform="translate(-1.73 -0.96)" fill="#da0d24" stroke="#da0d24" stroke-width="0.29"/><path id="path27776" d="M136.6,127.26c0-27.12,1.15-48,16.7-48,16.78,0,17.6,18.36,17.6,46,0,24.58-.58,48-17.85,48C139.4,173.29,136.6,156.91,136.6,127.26ZM91.86,202.5h43.92V183.73h.49c3.45,10.48,12.75,22.65,33.23,22.65,30.68,0,47-22.08,47-79,0-47.29-6.74-81.54-44.17-81.54-12.75,0-26.65,4.24-34.3,20.67h-.58V1H91.86V202.5" transform="translate(-1.73 -0.96)" fill="#fff"/><path id="path27778" d="M281.77,107.08c0-20.69,2.55-33.15,17.44-33.15,12.58,0,15.38,11.61,15.38,33.15Zm76.9,26.65c0-52.15-3.95-87.93-60.62-87.93-49.51,0-61.85,31.81-61.85,74.9,0,45.46,4.52,85.72,61.85,85.72,37.75,0,58.4-18.28,59.22-56.05H314.92c-1.15,19.18-4.77,27.92-16.61,27.92-13.16,0-16.53-11.56-16.53-35.24v-9.3h76.9" transform="translate(-1.73 -0.96)" fill="#fff"/><path id="path27780" d="M422.83,155.41c0-8.41,2.22-13.18,7.07-16.82,4.28-3.36,10.53-3.65,25-11.22,0,6.17-.33,14-.33,26.64,0,15.14-8.8,20.74-18.42,20.74C427.6,174.75,422.83,167.46,422.83,155.41Zm.74-58.32c.25-13.57,3.95-21.37,16.78-21.37,10.28,0,14.56,6.06,14.56,15.59,0,11.66-2.55,13.91-16.53,17.55-12.75,3.36-29.69,6.17-41,12.34s-18.67,21-18.67,38.7c0,32.93,15.05,46.49,40.71,46.49,15.38,0,29.86-7.9,36.11-21.47h.58c.25,6,.82,12.17,2.55,17.55h44c-5.35-6.79-5.35-21.49-5.35-33V91.31c0-32.53-16.7-45.51-54.37-45.51-19.08,0-32.08,2.54-42.77,9.88s-16.94,20-17.19,41.4h40.63" transform="translate(-1.73 -0.96)" fill="#fff"/><path id="path27782" d="M541.1,81.38H522.18V49.75H541.1V4.84h45.57V49.75h21.14V81.38H586.67v77.11c0,10.73,3.95,14.13,14.72,14.13a49.7,49.7,0,0,0,6.42-.57v30.5a202.69,202.69,0,0,1-26.24,1.69c-31.5,0-40.47-5.65-40.47-41.27V81.38" transform="translate(-1.73 -0.96)" fill="#fff"/></svg>