<svg id="Layer_1" data-name="Layer 1" xmlns="http://www.w3.org/2000/svg" viewBox="0 0 607.31 108.58"><title>swatch</title><path id="path27756" d="M492.09,10.21a7.69,7.69,0,1,1,15.38,0,7.69,7.69,0,1,1-15.38,0Zm7.73,9.46a9.46,9.46,0,1,0-9.62-9.46A9.43,9.43,0,0,0,499.83,19.67Zm-2-8.72h1.89l2.88,4.69h1.81l-3-4.77a2.81,2.81,0,0,0,2.8-3c0-2.22-1.32-3.13-3.87-3.13h-4.19V15.64h1.73Zm0-1.4V6.18h2.22c1.15,0,2.39.25,2.39,1.56,0,1.73-1.23,1.81-2.63,1.81h-2" transform="translate(-1.72 -0.75)" fill="#fff"/><path id="path27758" d="M81.59,23.86H25.25a23.34,23.34,0,0,0-16.61,7,22.55,22.55,0,0,0-6.5,16.21A23,23,0,0,0,8.71,63.7a22,22,0,0,0,15.87,6.43H59.46c7.48.06,13.08,5.36,13.16,12.62A13.52,13.52,0,0,1,59.38,95.82H1.72V107.9H59.46A25.82,25.82,0,0,0,84.71,82.75c-.25-14.07-11.1-24.58-25.25-24.7h-35a10,10,0,0,1-7.24-2.88,11.28,11.28,0,0,1-3.13-8.11,10.72,10.72,0,0,1,3.13-7.74A11.25,11.25,0,0,1,25.33,36H81.59V23.86" transform="translate(-1.72 -0.75)" fill="#fff"/><path id="path27760" d="M184.56,23.45v57a16.08,16.08,0,0,1-4.77,11.46,15.68,15.68,0,0,1-11.27,4.6c-8.72.07-15.87-7.19-16.12-16.19V23.45h-12V80.61h0A15.34,15.34,0,0,1,136,91.82a16,16,0,0,1-11.6,4.71,14.8,14.8,0,0,1-10.77-4.47A15.71,15.71,0,0,1,109,80.57V23.45H96.89v57a28.15,28.15,0,0,0,8.06,20.1,27,27,0,0,0,19.41,8,27.73,27.73,0,0,0,20.15-8.31,31.08,31.08,0,0,0,2.14-2.39,27.92,27.92,0,0,0,49.93-17.43v-57h-12" transform="translate(-1.72 -0.75)" fill="#fff"/><path id="path27762" d="M278.25,23.12h-26.4a43.11,43.11,0,0,0-43.76,42.31c.33,24.39,20,44,43.76,43.9a38.83,38.83,0,0,0,14.31-2.47V94.4h-1.4l-1.15.54A26.48,26.48,0,0,1,252,97.25c-17.44.07-31.67-14.2-31.91-31.81.25-17.12,14.15-30.47,31.67-30.23h20.4v72.35h12.09V23.12h-6" transform="translate(-1.72 -0.75)" fill="#fff"/><path id="path27764" d="M328.09,96.54a15.14,15.14,0,0,1-10.69-4.59,13.73,13.73,0,0,1-3.95-9.89V35.21h28.87V23.12H313.45V1.41h-12V81.9a25.1,25.1,0,0,0,7.32,18.43,26.88,26.88,0,0,0,19.33,8.27H345.2V96.54H328.09" transform="translate(-1.72 -0.75)" fill="#fff"/><path id="path27766" d="M415.93,78.73a31.14,31.14,0,0,1-28.62,18.52A31.48,31.48,0,0,1,364.69,88a31,31,0,0,1-9.13-22.43c-.16-17.3,14.15-31.5,31.75-31.75a30.87,30.87,0,0,1,24.92,13.06l10-6.89c-7.81-11.27-20.48-17.93-34.79-18.26-24.51.33-44.09,20-43.92,43.84a43,43,0,0,0,12.67,31A43.8,43.8,0,0,0,427,83.66l-11-4.93" transform="translate(-1.72 -0.75)" fill="#fff"/><path id="path27768" d="M471.94,21.72A35.54,35.54,0,0,0,447.43,31V1.41H435.34V107.57h12.09V58.31a24.15,24.15,0,0,1,7.16-17.5,23.83,23.83,0,0,1,17.35-7A25,25,0,0,1,497.36,58.5v49.07h12.09V58.39a37.1,37.1,0,0,0-37.51-36.67" transform="translate(-1.72 -0.75)" fill="#fff"/><path id="path27770" d="M527,25.59h81.92v82H527Z" transform="translate(-1.72 -0.75)" fill="#da0d24" stroke="#da0d24" stroke-miterlimit="3.86" stroke-width="0.29"/><path id="path27772" d="M603.21,56.25h-25V31.35H557.57V56.25H531.9V76.92h25.66v25.65h20.64V76.92h25V56.25" transform="translate(-1.72 -0.75)" fill="#fff"/></svg>